<svg width="272" height="76" viewBox="0 0 272 76" fill="none" xmlns="http://www.w3.org/2000/svg">
<path d="M2.0625 41.8438C2.0625 36.5729 3.23958 32.375 5.59375 29.25C7.96875 26.125 11.2083 24.5625 15.3125 24.5625C18.6042 24.5625 21.3229 25.7917 23.4688 28.25V11H32.5312V59H24.375L23.9375 55.4062C21.6875 58.2188 18.7917 59.625 15.25 59.625C11.2708 59.625 8.07292 58.0625 5.65625 54.9375C3.26042 51.7917 2.0625 47.4271 2.0625 41.8438ZM11.0938 42.5C11.0938 45.6667 11.6458 48.0938 12.75 49.7812C13.8542 51.4688 15.4583 52.3125 17.5625 52.3125C20.3542 52.3125 22.3229 51.1354 23.4688 48.7812V35.4375C22.3438 33.0833 20.3958 31.9062 17.625 31.9062C13.2708 31.9062 11.0938 35.4375 11.0938 42.5ZM55.0938 59.625C50.1354 59.625 46.0938 58.1042 42.9688 55.0625C39.8646 52.0208 38.3125 47.9688 38.3125 42.9062V42.0312C38.3125 38.6354 38.9688 35.6042 40.2812 32.9375C41.5938 30.25 43.4479 28.1875 45.8438 26.75C48.2604 25.2917 51.0104 24.5625 54.0938 24.5625C58.7188 24.5625 62.3542 26.0208 65 28.9375C67.6667 31.8542 69 35.9896 69 41.3438V45.0312H47.4688C47.7604 47.2396 48.6354 49.0104 50.0938 50.3438C51.5729 51.6771 53.4375 52.3438 55.6875 52.3438C59.1667 52.3438 61.8854 51.0833 63.8438 48.5625L68.2812 53.5312C66.9271 55.4479 65.0938 56.9479 62.7812 58.0312C60.4688 59.0938 57.9062 59.625 55.0938 59.625ZM54.0625 31.875C52.2708 31.875 50.8125 32.4792 49.6875 33.6875C48.5833 34.8958 47.875 36.625 47.5625 38.875H60.125V38.1562C60.0833 36.1562 59.5417 34.6146 58.5 33.5312C57.4583 32.4271 55.9792 31.875 54.0625 31.875ZM86.375 47.9688L92.6562 25.1875H102.094L90.6875 59H82.0625L70.6562 25.1875H80.0938L86.375 47.9688Z" fill="#A7A5EC"/>
<path d="M106.688 59V13.5H122.625C128.146 13.5 132.333 14.5625 135.188 16.6875C138.042 18.7917 139.469 21.8854 139.469 25.9688C139.469 28.1979 138.896 30.1667 137.75 31.875C136.604 33.5625 135.01 34.8021 132.969 35.5938C135.302 36.1771 137.135 37.3542 138.469 39.125C139.823 40.8958 140.5 43.0625 140.5 45.625C140.5 50 139.104 53.3125 136.312 55.5625C133.521 57.8125 129.542 58.9583 124.375 59H106.688ZM116.062 39.1875V51.4688H124.094C126.302 51.4688 128.021 50.9479 129.25 49.9062C130.5 48.8438 131.125 47.3854 131.125 45.5312C131.125 41.3646 128.969 39.25 124.656 39.1875H116.062ZM116.062 32.5625H123C127.729 32.4792 130.094 30.5938 130.094 26.9062C130.094 24.8438 129.49 23.3646 128.281 22.4688C127.094 21.5521 125.208 21.0938 122.625 21.0938H116.062V32.5625ZM145.562 41.7812C145.562 38.4271 146.208 35.4375 147.5 32.8125C148.792 30.1875 150.646 28.1562 153.062 26.7188C155.5 25.2812 158.323 24.5625 161.531 24.5625C166.094 24.5625 169.812 25.9583 172.688 28.75C175.583 31.5417 177.198 35.3333 177.531 40.125L177.594 42.4375C177.594 47.625 176.146 51.7917 173.25 54.9375C170.354 58.0625 166.469 59.625 161.594 59.625C156.719 59.625 152.823 58.0625 149.906 54.9375C147.01 51.8125 145.562 47.5625 145.562 42.1875V41.7812ZM154.594 42.4375C154.594 45.6458 155.198 48.1042 156.406 49.8125C157.615 51.5 159.344 52.3438 161.594 52.3438C163.781 52.3438 165.49 51.5104 166.719 49.8438C167.948 48.1562 168.562 45.4688 168.562 41.7812C168.562 38.6354 167.948 36.1979 166.719 34.4688C165.49 32.7396 163.76 31.875 161.531 31.875C159.323 31.875 157.615 32.7396 156.406 34.4688C155.198 36.1771 154.594 38.8333 154.594 42.4375ZM181.75 41.7812C181.75 38.4271 182.396 35.4375 183.688 32.8125C184.979 30.1875 186.833 28.1562 189.25 26.7188C191.688 25.2812 194.51 24.5625 197.719 24.5625C202.281 24.5625 206 25.9583 208.875 28.75C211.771 31.5417 213.385 35.3333 213.719 40.125L213.781 42.4375C213.781 47.625 212.333 51.7917 209.438 54.9375C206.542 58.0625 202.656 59.625 197.781 59.625C192.906 59.625 189.01 58.0625 186.094 54.9375C183.198 51.8125 181.75 47.5625 181.75 42.1875V41.7812ZM190.781 42.4375C190.781 45.6458 191.385 48.1042 192.594 49.8125C193.802 51.5 195.531 52.3438 197.781 52.3438C199.969 52.3438 201.677 51.5104 202.906 49.8438C204.135 48.1562 204.75 45.4688 204.75 41.7812C204.75 38.6354 204.135 36.1979 202.906 34.4688C201.677 32.7396 199.948 31.875 197.719 31.875C195.51 31.875 193.802 32.7396 192.594 34.4688C191.385 36.1771 190.781 38.8333 190.781 42.4375ZM231.625 45.4375L228.375 48.6875V59H219.344V11H228.375V37.5938L230.125 35.3438L238.781 25.1875H249.625L237.406 39.2812L250.688 59H240.312L231.625 45.4375Z" fill="#6C80EA"/>
</svg>
