<svg width="31" height="31" viewBox="0 0 31 31" fill="none" xmlns="http://www.w3.org/2000/svg">
<path d="M0.798573 27.9961L9.47147 19.6568C7.79151 17.6615 6.78001 15.126 6.78001 12.3646C6.78001 5.96441 12.196 0.756744 18.8522 0.756744C25.5084 0.756744 30.9243 5.96435 30.9243 12.3646C30.9243 18.7648 25.5083 23.9724 18.8521 23.9724C15.9802 23.9724 13.3434 22.9998 11.2683 21.3845L2.5954 29.7238C2.3476 29.9621 2.02231 30.0818 1.69696 30.0818C1.3716 30.0818 1.04631 29.9621 0.798513 29.7238C0.301668 29.2461 0.301668 28.4738 0.798573 27.9961ZM18.8521 21.5286C24.108 21.5286 28.3828 17.4183 28.3828 12.3646C28.3828 7.31084 24.108 3.20046 18.8521 3.20046C13.5963 3.20046 9.32148 7.31084 9.32148 12.3646C9.32148 17.4183 13.5963 21.5286 18.8521 21.5286Z" fill="black"/>
</svg>
